<svg xmlns="http://www.w3.org/2000/svg" width="480pt" height="290pt" viewBox="0 0 480 290" version="1.1" xmlns:xlink="http://www.w3.org/1999/xlink">
  <g id="surface2" transform="matrix(0.899355973683181,0,0,0.899355973683181,23.65456631603655,37.067622763266)" data-tpl_matrix="1,0,0,1,-0.5,-0.5">
    <path style="stroke:none;fill-rule:evenodd;fill:rgb(6.274510%,44.705882%,72.941176%);fill-opacity:1" d="M 238.550781 86.601562 C 243.882812 90.734375 249.433594 93.601562 255.199219 95.199219 L 256.851562 92.199219 C 251.117188 90.867188 245.015625 87.582031 238.550781 82.351562 C 232.050781 87.648438 225.898438 90.949219 220.101562 92.250000 L 221.750000 95.250000 C 227.582031 93.648438 233.183594 90.765625 238.550781 86.601562 "/>
    <path style="stroke:none;fill-rule:evenodd;fill:rgb(6.274510%,44.705882%,72.941176%);fill-opacity:1" d="M 263.898438 93.398438 L 262.148438 96.550781 C 263.582031 96.714844 265.035156 96.800781 266.500000 96.800781 C 271.765625 96.632812 275.964844 95.984375 279.101562 94.851562 C 278.667969 106.082031 276.800781 116.898438 273.500000 127.300781 C 273.066406 127.265625 272.632812 127.234375 272.199219 127.199219 C 268.765625 126.867188 265.234375 126.285156 261.601562 125.449219 C 260.699219 125.250000 259.800781 125.035156 258.898438 124.800781 C 258.464844 124.667969 258.015625 124.550781 257.550781 124.449219 L 256.898438 124.300781 L 256.199219 124.050781 C 254.300781 123.484375 252.398438 122.917969 250.500000 122.351562 L 249.000000 121.949219 C 248.765625 121.851562 248.535156 121.785156 248.300781 121.750000 L 245.000000 127.750000 C 245.167969 127.816406 245.351562 127.882812 245.550781 127.949219 C 246.015625 128.082031 246.464844 128.234375 246.898438 128.398438 L 248.250000 128.949219 C 250.117188 129.648438 251.964844 130.351562 253.800781 131.050781 L 254.449219 131.300781 L 255.199219 131.550781 C 255.667969 131.750000 256.148438 131.917969 256.648438 132.050781 C 257.617188 132.417969 258.582031 132.734375 259.550781 133.000000 C 263.183594 134.167969 266.816406 135.066406 270.449219 135.699219 C 269.917969 137.066406 269.351562 138.398438 268.750000 139.699219 C 266.148438 139.132812 263.535156 138.398438 260.898438 137.500000 C 259.964844 137.234375 259.066406 136.917969 258.199219 136.550781 C 257.734375 136.417969 257.285156 136.265625 256.851562 136.101562 L 256.199219 135.851562 L 255.500000 135.550781 C 253.667969 134.816406 251.832031 134.082031 250.000000 133.351562 L 248.550781 132.800781 C 248.082031 132.632812 247.617188 132.464844 247.148438 132.300781 C 246.183594 131.964844 245.234375 131.632812 244.300781 131.300781 C 243.933594 131.199219 243.566406 131.082031 243.199219 130.949219 L 242.300781 132.601562 L 245.300781 138.101562 C 245.734375 138.234375 246.148438 138.351562 246.550781 138.449219 L 247.898438 138.898438 C 249.800781 139.500000 251.683594 140.117188 253.550781 140.750000 L 254.250000 140.949219 L 255.000000 141.148438 C 255.464844 141.316406 255.949219 141.464844 256.449219 141.601562 C 257.449219 141.898438 258.433594 142.167969 259.398438 142.398438 C 261.867188 143.035156 264.316406 143.550781 266.750000 143.949219 C 264.183594 149.214844 261.199219 154.285156 257.800781 159.148438 C 257.632812 159.417969 257.464844 159.667969 257.300781 159.898438 L 259.101562 163.101562 C 265.101562 155.199219 270.433594 145.132812 275.101562 132.898438 C 279.800781 120.699219 282.285156 106.351562 282.550781 89.851562 C 282.449219 90.050781 280.714844 90.734375 277.351562 91.898438 C 273.984375 93.066406 269.500000 93.566406 263.898438 93.398438 "/>
    <path style="stroke:none;fill-rule:evenodd;fill:rgb(6.274510%,44.705882%,72.941176%);fill-opacity:1" d="M 207.300781 137.300781 C 207.535156 137.234375 207.765625 137.148438 208.000000 137.050781 C 210.535156 136.250000 213.332031 135.632812 216.398438 135.199219 C 219.464844 134.800781 222.750000 134.667969 226.250000 134.800781 C 228.449219 134.898438 230.714844 135.117188 233.050781 135.449219 L 234.601562 132.601562 L 232.199219 128.199219 C 230.433594 127.867188 228.667969 127.601562 226.898438 127.398438 C 223.035156 127.000000 219.316406 126.917969 215.750000 127.148438 C 212.148438 127.417969 208.816406 127.964844 205.750000 128.800781 C 205.250000 128.933594 204.750000 129.082031 204.250000 129.250000 C 203.917969 128.214844 203.582031 127.167969 203.250000 126.101562 C 204.382812 125.667969 205.566406 125.285156 206.800781 124.949219 C 209.601562 124.183594 212.667969 123.667969 216.000000 123.398438 C 219.300781 123.132812 222.750000 123.167969 226.351562 123.500000 C 227.515625 123.601562 228.683594 123.750000 229.851562 123.949219 L 226.800781 118.449219 C 226.765625 118.417969 226.734375 118.398438 226.699219 118.398438 C 222.765625 118.398438 219.050781 118.683594 215.550781 119.250000 C 211.984375 119.816406 208.750000 120.632812 205.851562 121.699219 C 204.617188 122.167969 203.464844 122.648438 202.398438 123.148438 C 199.867188 114.015625 198.398438 104.582031 198.000000 94.851562 C 201.167969 95.984375 205.367188 96.632812 210.601562 96.800781 C 212.000000 96.800781 213.398438 96.734375 214.800781 96.601562 L 213.050781 93.398438 C 207.484375 93.566406 203.035156 93.066406 199.699219 91.898438 C 196.398438 90.734375 194.699219 90.050781 194.601562 89.851562 C 194.867188 106.285156 197.332031 120.601562 202.000000 132.800781 C 206.632812 144.964844 211.933594 155.015625 217.898438 162.949219 L 219.699219 159.699219 C 219.535156 159.464844 219.351562 159.214844 219.148438 158.949219 C 214.449219 152.117188 210.500000 144.898438 207.300781 137.300781 "/>
    <path style="stroke:none;fill-rule:evenodd;fill:rgb(6.274510%,44.705882%,72.941176%);fill-opacity:1" d="M 238.601562 180.601562 C 235.398438 178.234375 230.582031 173.234375 224.148438 165.601562 L 222.398438 168.750000 C 232.167969 179.484375 237.550781 184.851562 238.550781 184.851562 C 239.582031 184.851562 244.933594 179.535156 254.601562 168.898438 L 252.898438 165.750000 C 246.500000 173.316406 241.734375 178.265625 238.601562 180.601562 "/>
    <path style="stroke:none;fill-rule:evenodd;fill:rgb(6.274510%,44.705882%,72.941176%);fill-opacity:1" d="M 238.550781 119.550781 C 238.050781 119.484375 237.550781 119.398438 237.050781 119.300781 C 236.550781 119.234375 236.050781 119.167969 235.550781 119.101562 C 235.285156 119.066406 235.035156 119.035156 234.800781 119.000000 L 238.449219 125.601562 L 241.500000 120.101562 L 240.800781 119.949219 L 240.050781 119.800781 C 239.550781 119.734375 239.050781 119.648438 238.550781 119.550781 "/>
    <path style="stroke:none;fill-rule:evenodd;fill:rgb(6.274510%,44.705882%,72.941176%);fill-opacity:1" d="M 264.949219 59.101562 C 264.750000 59.867188 264.550781 60.582031 264.351562 61.250000 C 267.851562 62.515625 271.398438 64.117188 275.000000 66.050781 C 278.566406 67.984375 281.832031 70.082031 284.800781 72.351562 C 285.265625 71.816406 285.765625 71.265625 286.300781 70.699219 C 283.566406 68.500000 280.167969 66.265625 276.101562 64.000000 C 272.167969 61.898438 268.449219 60.265625 264.949219 59.101562 "/>
    <path style="stroke:none;fill-rule:evenodd;fill:rgb(6.274510%,44.705882%,72.941176%);fill-opacity:1" d="M 264.050781 62.449219 C 263.816406 63.214844 263.617188 63.933594 263.449219 64.601562 C 266.617188 65.734375 269.917969 67.234375 273.351562 69.101562 C 276.750000 70.964844 279.800781 72.898438 282.500000 74.898438 C 282.964844 74.398438 283.464844 73.851562 284.000000 73.250000 C 281.367188 71.214844 278.167969 69.167969 274.398438 67.101562 C 270.632812 65.066406 267.183594 63.515625 264.050781 62.449219 "/>
    <path style="stroke:none;fill-rule:evenodd;fill:rgb(6.274510%,44.705882%,72.941176%);fill-opacity:1" d="M 263.148438 65.800781 C 262.550781 67.832031 262.250000 68.882812 262.250000 68.949219 C 261.714844 74.417969 262.234375 78.066406 263.800781 79.898438 C 263.601562 80.000000 263.449219 80.132812 263.351562 80.300781 C 263.082031 80.867188 263.265625 81.515625 263.898438 82.250000 L 211.851562 176.699219 C 211.351562 177.867188 211.617188 178.800781 212.648438 179.500000 C 212.984375 179.667969 213.316406 179.750000 213.648438 179.750000 C 214.417969 179.750000 215.015625 179.398438 215.449219 178.699219 L 267.398438 84.300781 C 268.535156 84.500000 269.285156 84.316406 269.648438 83.750000 C 269.750000 83.515625 269.785156 83.265625 269.750000 83.000000 C 272.117188 83.265625 275.382812 81.714844 279.550781 78.351562 C 279.617188 78.285156 280.332031 77.449219 281.699219 75.851562 C 279.101562 73.917969 276.132812 72.035156 272.800781 70.199219 C 269.433594 68.398438 266.214844 66.933594 263.148438 65.800781 "/>
    <path style="stroke:none;fill-rule:evenodd;fill:rgb(6.274510%,44.705882%,72.941176%);fill-opacity:1" d="M 292.300781 34.101562 C 286.765625 31.234375 282.000000 29.199219 278.000000 28.000000 C 273.964844 26.800781 271.867188 26.214844 271.699219 26.250000 C 271.500000 29.949219 270.734375 34.816406 269.398438 40.851562 C 268.066406 46.882812 266.683594 52.566406 265.250000 57.898438 C 268.851562 59.101562 272.648438 60.785156 276.648438 62.949219 C 280.515625 65.050781 284.000000 67.316406 287.101562 69.750000 C 290.800781 65.617188 294.816406 61.351562 299.148438 56.949219 C 303.449219 52.550781 307.101562 49.265625 310.101562 47.101562 C 310.035156 46.933594 308.398438 45.484375 305.199219 42.750000 C 302.035156 40.050781 297.734375 37.167969 292.300781 34.101562 "/>
    <path style="stroke:none;fill-rule:evenodd;fill:rgb(6.274510%,44.705882%,72.941176%);fill-opacity:1" d="M 210.398438 73.101562 C 210.132812 73.035156 209.785156 72.867188 209.351562 72.601562 C 208.882812 72.332031 208.367188 71.964844 207.800781 71.500000 C 207.535156 71.265625 207.250000 71.015625 206.949219 70.750000 C 206.683594 70.484375 206.382812 70.183594 206.050781 69.851562 C 205.484375 69.183594 204.917969 68.417969 204.351562 67.550781 C 203.785156 66.714844 203.285156 65.785156 202.851562 64.750000 C 202.382812 63.714844 201.984375 62.648438 201.648438 61.550781 C 201.382812 60.417969 201.117188 59.285156 200.851562 58.148438 C 200.582031 57.050781 200.285156 55.964844 199.949219 54.898438 C 199.617188 53.832031 199.250000 52.800781 198.851562 51.800781 C 198.484375 50.800781 198.101562 49.851562 197.699219 48.949219 C 197.300781 48.082031 196.898438 47.265625 196.500000 46.500000 C 195.699219 44.933594 195.015625 43.734375 194.449219 42.898438 C 193.882812 42.035156 193.582031 41.601562 193.550781 41.601562 C 193.582031 41.601562 193.964844 41.964844 194.699219 42.699219 C 195.398438 43.464844 196.250000 44.582031 197.250000 46.050781 C 197.750000 46.785156 198.250000 47.582031 198.750000 48.449219 C 199.214844 49.351562 199.667969 50.300781 200.101562 51.300781 C 200.566406 52.300781 200.984375 53.351562 201.351562 54.449219 C 201.714844 55.550781 202.050781 56.667969 202.351562 57.800781 C 202.582031 58.933594 202.832031 60.050781 203.101562 61.148438 C 203.398438 62.214844 203.734375 63.234375 204.101562 64.199219 C 204.867188 66.199219 205.750000 67.898438 206.750000 69.300781 C 207.250000 69.964844 207.734375 70.566406 208.199219 71.101562 C 208.699219 71.601562 209.132812 72.015625 209.500000 72.351562 C 210.300781 72.984375 210.734375 73.285156 210.800781 73.250000 C 210.765625 73.285156 210.632812 73.234375 210.398438 73.101562 M 265.050781 176.699219 L 213.148438 82.351562 C 213.851562 81.582031 214.066406 80.898438 213.800781 80.300781 C 213.667969 80.101562 213.500000 79.949219 213.300781 79.851562 C 220.800781 72.316406 222.765625 64.550781 219.199219 56.550781 C 215.601562 48.550781 213.250000 44.234375 212.148438 43.601562 C 204.382812 34.734375 195.765625 29.667969 186.300781 28.398438 C 176.832031 27.132812 171.667969 26.750000 170.800781 27.250000 C 171.933594 27.148438 174.734375 29.601562 179.199219 34.601562 C 179.964844 35.433594 180.714844 36.417969 181.449219 37.550781 C 182.917969 39.785156 184.214844 42.449219 185.351562 45.550781 C 186.515625 48.648438 187.449219 51.898438 188.148438 55.300781 C 188.515625 56.964844 188.851562 58.632812 189.148438 60.300781 C 189.382812 62.000000 189.632812 63.617188 189.898438 65.148438 C 190.601562 68.285156 191.816406 70.832031 193.550781 72.800781 C 195.316406 74.667969 196.949219 75.832031 198.449219 76.300781 C 199.917969 76.765625 200.683594 76.964844 200.750000 76.898438 C 200.683594 76.964844 199.917969 76.800781 198.449219 76.398438 C 196.882812 76.035156 195.132812 74.933594 193.199219 73.101562 C 191.300781 71.167969 189.917969 68.582031 189.050781 65.351562 C 188.683594 63.750000 188.351562 62.132812 188.050781 60.500000 C 187.683594 58.867188 187.285156 57.234375 186.851562 55.601562 C 186.015625 52.265625 184.984375 49.132812 183.750000 46.199219 C 183.214844 44.898438 182.632812 43.683594 182.000000 42.550781 C 182.234375 44.683594 182.035156 47.050781 181.398438 49.648438 C 179.964844 56.484375 179.949219 62.082031 181.351562 66.449219 C 182.750000 70.816406 183.617188 73.066406 183.949219 73.199219 C 188.082031 78.601562 192.351562 81.734375 196.750000 82.601562 C 201.148438 83.500000 204.734375 83.515625 207.500000 82.648438 C 207.332031 83.050781 207.332031 83.398438 207.500000 83.699219 C 207.832031 84.234375 208.515625 84.433594 209.550781 84.300781 L 261.500000 178.648438 C 261.933594 179.351562 262.535156 179.699219 263.300781 179.699219 C 263.632812 179.699219 263.949219 179.617188 264.250000 179.449219 C 265.285156 178.750000 265.550781 177.832031 265.050781 176.699219 "/>
    <path style="stroke:none;fill-rule:evenodd;fill:rgb(6.274510%,44.705882%,72.941176%);fill-opacity:1" d="M 233.398438 97.750000 C 233.699219 94.617188 235.417969 92.898438 238.550781 92.601562 C 241.714844 92.898438 243.449219 94.617188 243.750000 97.750000 C 243.449219 100.917969 241.714844 102.648438 238.550781 102.949219 C 235.417969 102.648438 233.699219 100.917969 233.398438 97.750000 "/>
    <path style="stroke:none;fill-rule:evenodd;fill:rgb(6.274510%,44.705882%,72.941176%);fill-opacity:1" d="M 232.750000 107.300781 C 232.882812 105.867188 233.667969 105.082031 235.101562 104.949219 C 236.535156 105.082031 237.316406 105.867188 237.449219 107.300781 C 237.316406 108.734375 236.535156 109.515625 235.101562 109.648438 C 233.667969 109.515625 232.882812 108.734375 232.750000 107.300781 "/>
    <path style="stroke:none;fill-rule:evenodd;fill:rgb(6.274510%,44.705882%,72.941176%);fill-opacity:1" d="M 238.601562 114.851562 C 238.699219 113.882812 239.234375 113.351562 240.199219 113.250000 C 241.199219 113.351562 241.734375 113.882812 241.800781 114.851562 C 241.734375 115.851562 241.199219 116.382812 240.199219 116.449219 C 239.234375 116.382812 238.699219 115.851562 238.601562 114.851562 "/>
    <path style="stroke:none;fill-rule:evenodd;fill:rgb(100.000000%,100.000000%,100.000000%);fill-opacity:1" d="M 238.601562 96.148438 C 238.699219 95.183594 239.234375 94.648438 240.199219 94.550781 C 241.199219 94.648438 241.734375 95.183594 241.800781 96.148438 C 241.734375 97.148438 241.199219 97.683594 240.199219 97.750000 C 239.234375 97.683594 238.699219 97.148438 238.601562 96.148438 "/>
    <path style="stroke:none;fill-rule:evenodd;fill:rgb(100.000000%,100.000000%,100.000000%);fill-opacity:1" d="M 234.648438 106.750000 C 234.714844 106.183594 235.066406 105.867188 235.699219 105.800781 C 236.300781 105.867188 236.632812 106.183594 236.699219 106.750000 C 236.632812 107.316406 236.300781 107.617188 235.699219 107.648438 C 235.066406 107.617188 234.714844 107.316406 234.648438 106.750000 "/>
    <path style="stroke:none;fill-rule:evenodd;fill:rgb(100.000000%,100.000000%,100.000000%);fill-opacity:1" d="M 239.750000 114.550781 C 239.785156 114.050781 240.066406 113.785156 240.601562 113.750000 C 241.132812 113.785156 241.433594 114.050781 241.500000 114.550781 C 241.433594 115.015625 241.132812 115.265625 240.601562 115.300781 C 240.101562 115.265625 239.816406 115.015625 239.750000 114.550781 "/>
  </g>
  <g id="surface4">
    <text style="fill:rgb(0,42,70)" font-family="Futura Md BT" font-size="38" transform="matrix(1,0,0,1,83.75,253.3)" xml:space="preserve"><![CDATA[ Cleaning Service.]]></text>
    <text style="fill:rgb(0,42,70)" font-family="Futura Md BT" font-size="50" transform="matrix(0.8369892766052915,0,0,0.8369892766052915,152.15966104639108,51.08774263852699)" xml:space="preserve"><![CDATA[Geranios]]></text>
  </g>
</svg>